# xmcd
#
# Track frame offsets:
#	150
#	16325
#	32789
#	49242
#	65641
#	76878
#	94154
#	110930
#	123988
#	136023
#	154146
#	167863
#
# Disc length: 2467 seconds
#
# Revision: 1
# Processed by: cddbd v1.5.2PL0 Copyright (c) Steve Scherf et al.
# Submitted via: audiograbber 1.82.02
#
DISCID=a009a10c
DTITLE=Paul Mateki - So strong
DYEAR=2000
DGENRE=
TTITLE0=So strong
TTITLE1=Sedona
TTITLE2=Don´t be a fool
TTITLE3=Write it in your heart
TTITLE4=Nothing looks the same
TTITLE5=Watch how I´m listening
TTITLE6=Walking in her light
TTITLE7=Only time will tell
TTITLE8=Something this guy won´t do
TTITLE9=Harvest time in heaven
TTITLE10=Red side of Town
TTITLE11=Dead horses
EXTD=
EXTT0=
EXTT1=
EXTT2=
EXTT3=
EXTT4=
EXTT5=
EXTT6=
EXTT7=
EXTT8=
EXTT9=
EXTT10=
EXTT11=
PLAYORDER=
